G04 Layer_Color=128*
%FSLAX43Y43*%
%MOMM*%
G71*
G01*
G75*
%ADD45C,0.127*%
%ADD112C,0.051*%
D45*
X57130Y-3040D02*
G03*
X59130Y-1040I0J2000D01*
G01*
Y75460D02*
G03*
X57130Y77460I-2000J0D01*
G01*
X-10870Y-1040D02*
G03*
X-8870Y-3040I2000J0D01*
G01*
Y77460D02*
G03*
X-10870Y75460I0J-2000D01*
G01*
X27130Y51960D02*
G03*
X27130Y52960I0J500D01*
G01*
X4630Y51960D02*
G03*
X4630Y52960I0J500D01*
G01*
X43130Y52960D02*
G03*
X43130Y51960I0J-500D01*
G01*
X39080Y51960D02*
G03*
X39080Y52960I0J500D01*
G01*
X31750Y52960D02*
G03*
X31750Y51960I0J-500D01*
G01*
X8130Y52960D02*
G03*
X8130Y51960I0J-500D01*
G01*
X59130Y52960D02*
Y75460D01*
Y-1040D02*
Y51960D01*
X-10870Y52960D02*
Y75460D01*
Y-1040D02*
Y51960D01*
X43130Y52960D02*
X59130D01*
X43130Y51960D02*
X59130D01*
X8130Y52960D02*
X27130Y52960D01*
X8130Y51960D02*
X27130Y51960D01*
X-10870Y51960D02*
X4630D01*
X-10870Y52960D02*
X4630D01*
X-8870Y-3040D02*
X500D01*
X-8870Y77460D02*
X57130Y77460D01*
X31750Y52960D02*
X39080D01*
X31750Y51960D02*
X39080D01*
X37600Y-3040D02*
X57130D01*
X500Y-3040D02*
X630D01*
X2630Y-5040D01*
X35630D01*
Y-5040D01*
X37630Y-3040D01*
X-2032Y81788D02*
Y80772D01*
Y81788D02*
X-1645Y80772D01*
X-1258Y81788D02*
X-1645Y80772D01*
X-1258Y81788D02*
Y80772D01*
X-968Y81788D02*
Y80772D01*
Y81788D02*
X-532D01*
X-387Y81739D01*
X-339Y81691D01*
X-291Y81594D01*
Y81498D01*
X-339Y81401D01*
X-387Y81352D01*
X-532Y81304D01*
X-968D02*
X-532D01*
X-387Y81256D01*
X-339Y81207D01*
X-291Y81111D01*
Y80965D01*
X-339Y80869D01*
X-387Y80820D01*
X-532Y80772D01*
X-968D01*
X-63Y81594D02*
X34Y81643D01*
X179Y81788D01*
Y80772D01*
X778Y81788D02*
X1311D01*
X1020Y81401D01*
X1165D01*
X1262Y81352D01*
X1311Y81304D01*
X1359Y81159D01*
Y81062D01*
X1311Y80917D01*
X1214Y80820D01*
X1069Y80772D01*
X924D01*
X778Y80820D01*
X730Y80869D01*
X682Y80965D01*
X2167Y81643D02*
X2118Y81739D01*
X1973Y81788D01*
X1876D01*
X1731Y81739D01*
X1635Y81594D01*
X1586Y81352D01*
Y81111D01*
X1635Y80917D01*
X1731Y80820D01*
X1876Y80772D01*
X1925D01*
X2070Y80820D01*
X2167Y80917D01*
X2215Y81062D01*
Y81111D01*
X2167Y81256D01*
X2070Y81352D01*
X1925Y81401D01*
X1876D01*
X1731Y81352D01*
X1635Y81256D01*
X1586Y81111D01*
X2728Y81788D02*
X2583Y81739D01*
X2486Y81594D01*
X2438Y81352D01*
Y81207D01*
X2486Y80965D01*
X2583Y80820D01*
X2728Y80772D01*
X2825D01*
X2970Y80820D01*
X3066Y80965D01*
X3115Y81207D01*
Y81352D01*
X3066Y81594D01*
X2970Y81739D01*
X2825Y81788D01*
X2728D01*
X4068Y81546D02*
X4019Y81643D01*
X3923Y81739D01*
X3826Y81788D01*
X3632D01*
X3536Y81739D01*
X3439Y81643D01*
X3390Y81546D01*
X3342Y81401D01*
Y81159D01*
X3390Y81014D01*
X3439Y80917D01*
X3536Y80820D01*
X3632Y80772D01*
X3826D01*
X3923Y80820D01*
X4019Y80917D01*
X4068Y81014D01*
D112*
X20530Y19558D02*
X21530D01*
X21030Y19058D02*
Y20058D01*
X26730Y19558D02*
X27730D01*
X27230Y19058D02*
Y20058D01*
X38245Y73304D02*
X39145D01*
X38695Y72854D02*
Y73754D01*
X33245Y73304D02*
X34145D01*
X33695Y72854D02*
Y73754D01*
X39395Y76004D02*
X39995D01*
X39695Y75704D02*
Y76304D01*
X32395Y76004D02*
X32995D01*
X32695Y75704D02*
Y76304D01*
X52840Y15240D02*
X53840D01*
X53340Y14740D02*
Y15740D01*
X52840Y12700D02*
X53840D01*
X53340Y12200D02*
Y13200D01*
X55380Y15240D02*
X56380D01*
X55880Y14740D02*
Y15740D01*
X55380Y12700D02*
X56380D01*
X55880Y12200D02*
Y13200D01*
X55380Y5080D02*
X56380D01*
X55880Y4580D02*
Y5580D01*
X55380Y10160D02*
X56380D01*
X55880Y9660D02*
Y10660D01*
X55380Y7620D02*
X56380D01*
X55880Y7120D02*
Y8120D01*
X52840Y5080D02*
X53840D01*
X53340Y4580D02*
Y5580D01*
X52840Y7620D02*
X53840D01*
X53340Y7120D02*
Y8120D01*
X52840Y10160D02*
X53840D01*
X53340Y9660D02*
Y10660D01*
X55380Y0D02*
X56380D01*
X55880Y-500D02*
Y500D01*
X55380Y2540D02*
X56380D01*
X55880Y2040D02*
Y3040D01*
X52840Y0D02*
X53840D01*
X53340Y-500D02*
Y500D01*
X52840Y2540D02*
X53840D01*
X53340Y2040D02*
Y3040D01*
X52840Y27940D02*
X53840D01*
X53340Y27440D02*
Y28440D01*
X52840Y25400D02*
X53840D01*
X53340Y24900D02*
Y25900D01*
X55380Y27940D02*
X56380D01*
X55880Y27440D02*
Y28440D01*
X55380Y25400D02*
X56380D01*
X55880Y24900D02*
Y25900D01*
X55380Y17780D02*
X56380D01*
X55880Y17280D02*
Y18280D01*
X55380Y22860D02*
X56380D01*
X55880Y22360D02*
Y23360D01*
X55380Y20320D02*
X56380D01*
X55880Y19820D02*
Y20820D01*
X52840Y17780D02*
X53840D01*
X53340Y17280D02*
Y18280D01*
X52840Y20320D02*
X53840D01*
X53340Y19820D02*
Y20820D01*
X52840Y22860D02*
X53840D01*
X53340Y22360D02*
Y23360D01*
X52840Y35560D02*
X53840D01*
X53340Y35060D02*
Y36060D01*
X52840Y33020D02*
X53840D01*
X53340Y32520D02*
Y33520D01*
X52840Y30480D02*
X53840D01*
X53340Y29980D02*
Y30980D01*
X55380Y33020D02*
X56380D01*
X55880Y32520D02*
Y33520D01*
X55380Y35560D02*
X56380D01*
X55880Y35060D02*
Y36060D01*
X55380Y30480D02*
X56380D01*
X55880Y29980D02*
Y30980D01*
X55380Y38100D02*
X56380D01*
X55880Y37600D02*
Y38600D01*
X55380Y45720D02*
X56380D01*
X55880Y45220D02*
Y46220D01*
X55380Y43180D02*
X56380D01*
X55880Y42680D02*
Y43680D01*
X55380Y40640D02*
X56380D01*
X55880Y40140D02*
Y41140D01*
X52840Y38100D02*
X53840D01*
X53340Y37600D02*
Y38600D01*
X52840Y40640D02*
X53840D01*
X53340Y40140D02*
Y41140D01*
X52840Y43180D02*
X53840D01*
X53340Y42680D02*
Y43680D01*
X52840Y45720D02*
X53840D01*
X53340Y45220D02*
Y46220D01*
X31250Y38100D02*
X32250D01*
X31750Y37600D02*
Y38600D01*
X31250Y40640D02*
X32250D01*
X31750Y40140D02*
Y41140D01*
X38870Y40640D02*
X39870D01*
X39370Y40140D02*
Y41140D01*
X36330Y40640D02*
X37330D01*
X36830Y40140D02*
Y41140D01*
X33790Y40640D02*
X34790D01*
X34290Y40140D02*
Y41140D01*
X33790Y38100D02*
X34790D01*
X34290Y37600D02*
Y38600D01*
X36330Y38100D02*
X37330D01*
X36830Y37600D02*
Y38600D01*
X38870Y38100D02*
X39870D01*
X39370Y37600D02*
Y38600D01*
X21725Y37465D02*
X22725D01*
X22225Y36965D02*
Y37965D01*
X24265Y37465D02*
X25265D01*
X24765Y36965D02*
Y37965D01*
X47710Y39624D02*
X48810D01*
X48260Y39074D02*
Y40174D01*
X47710Y37084D02*
X48810D01*
X48260Y36534D02*
Y37634D01*
X47710Y29464D02*
X48810D01*
X48260Y28914D02*
Y30014D01*
X47710Y26924D02*
X48810D01*
X48260Y26374D02*
Y27474D01*
X47710Y24384D02*
X48810D01*
X48260Y23834D02*
Y24934D01*
X47710Y21844D02*
X48810D01*
X48260Y21294D02*
Y22394D01*
X47710Y32004D02*
X48810D01*
X48260Y31454D02*
Y32554D01*
X47710Y34544D02*
X48810D01*
X48260Y33994D02*
Y35094D01*
X47710Y42164D02*
X48810D01*
X48260Y41614D02*
Y42714D01*
X47710Y44704D02*
X48810D01*
X48260Y44154D02*
Y45254D01*
X47710Y12700D02*
X48810D01*
X48260Y12150D02*
Y13250D01*
X47710Y10160D02*
X48810D01*
X48260Y9610D02*
Y10710D01*
X47710Y0D02*
X48810D01*
X48260Y-550D02*
Y550D01*
X47710Y2540D02*
X48810D01*
X48260Y1990D02*
Y3090D01*
X47710Y5080D02*
X48810D01*
X48260Y4530D02*
Y5630D01*
X47710Y7620D02*
X48810D01*
X48260Y7070D02*
Y8170D01*
X47710Y15240D02*
X48810D01*
X48260Y14690D02*
Y15790D01*
X47710Y17780D02*
X48810D01*
X48260Y17230D02*
Y18330D01*
X-550Y5080D02*
X550D01*
X0Y4530D02*
Y5630D01*
X-550Y7620D02*
X550D01*
X0Y7070D02*
Y8170D01*
X-550Y10160D02*
X550D01*
X0Y9610D02*
Y10710D01*
X-550Y12700D02*
X550D01*
X0Y12150D02*
Y13250D01*
X-550Y2540D02*
X550D01*
X0Y1990D02*
Y3090D01*
X-550Y0D02*
X550D01*
X0Y-550D02*
Y550D01*
X-3040Y63500D02*
X-2040D01*
X-2540Y63000D02*
Y64000D01*
X-3040Y68580D02*
X-2040D01*
X-2540Y68080D02*
Y69080D01*
X-3040Y60960D02*
X-2040D01*
X-2540Y60460D02*
Y61460D01*
X-3040Y66040D02*
X-2040D01*
X-2540Y65540D02*
Y66540D01*
X-3040Y58420D02*
X-2040D01*
X-2540Y57920D02*
Y58920D01*
X-3040Y55880D02*
X-2040D01*
X-2540Y55380D02*
Y56380D01*
X10930Y72390D02*
X11930D01*
X11430Y71890D02*
Y72890D01*
X10930Y67310D02*
X11930D01*
X11430Y66810D02*
Y67810D01*
X10930Y74930D02*
X11930D01*
X11430Y74430D02*
Y75430D01*
X10930Y69850D02*
X11930D01*
X11430Y69350D02*
Y70350D01*
X24265Y74930D02*
X25265D01*
X24765Y74430D02*
Y75430D01*
X21725Y74930D02*
X22725D01*
X22225Y74430D02*
Y75430D01*
X2040Y55880D02*
X3040D01*
X2540Y55380D02*
Y56380D01*
X2040Y58420D02*
X3040D01*
X2540Y57920D02*
Y58920D01*
X-8120Y73660D02*
X-7120D01*
X-7620Y73160D02*
Y74160D01*
X-8120Y71120D02*
X-7120D01*
X-7620Y70620D02*
Y71620D01*
X55380Y71120D02*
X56380D01*
X55880Y70620D02*
Y71620D01*
X55380Y73660D02*
X56380D01*
X55880Y73160D02*
Y74160D01*
X-550Y22860D02*
X550D01*
X0Y22310D02*
Y23410D01*
X-550Y25400D02*
X550D01*
X0Y24850D02*
Y25950D01*
X-550Y35560D02*
X550D01*
X0Y35010D02*
Y36110D01*
X-550Y33020D02*
X550D01*
X0Y32470D02*
Y33570D01*
X-550Y30480D02*
X550D01*
X0Y29930D02*
Y31030D01*
X-550Y27940D02*
X550D01*
X0Y27390D02*
Y28490D01*
X-550Y20320D02*
X550D01*
X0Y19770D02*
Y20870D01*
X-550Y17780D02*
X550D01*
X0Y17230D02*
Y18330D01*
X-8120Y15240D02*
X-7120D01*
X-7620Y14740D02*
Y15740D01*
X-8120Y12700D02*
X-7120D01*
X-7620Y12200D02*
Y13200D01*
X-5580Y15240D02*
X-4580D01*
X-5080Y14740D02*
Y15740D01*
X-5580Y12700D02*
X-4580D01*
X-5080Y12200D02*
Y13200D01*
X-5580Y5080D02*
X-4580D01*
X-5080Y4580D02*
Y5580D01*
X-5580Y10160D02*
X-4580D01*
X-5080Y9660D02*
Y10660D01*
X-5580Y7620D02*
X-4580D01*
X-5080Y7120D02*
Y8120D01*
X-8120Y5080D02*
X-7120D01*
X-7620Y4580D02*
Y5580D01*
X-8120Y7620D02*
X-7120D01*
X-7620Y7120D02*
Y8120D01*
X-8120Y10160D02*
X-7120D01*
X-7620Y9660D02*
Y10660D01*
X-5580Y0D02*
X-4580D01*
X-5080Y-500D02*
Y500D01*
X-5580Y2540D02*
X-4580D01*
X-5080Y2040D02*
Y3040D01*
X-8120Y0D02*
X-7120D01*
X-7620Y-500D02*
Y500D01*
X-8120Y2540D02*
X-7120D01*
X-7620Y2040D02*
Y3040D01*
X-8120Y27940D02*
X-7120D01*
X-7620Y27440D02*
Y28440D01*
X-8120Y25400D02*
X-7120D01*
X-7620Y24900D02*
Y25900D01*
X-5580Y27940D02*
X-4580D01*
X-5080Y27440D02*
Y28440D01*
X-5580Y25400D02*
X-4580D01*
X-5080Y24900D02*
Y25900D01*
X-5580Y17780D02*
X-4580D01*
X-5080Y17280D02*
Y18280D01*
X-5580Y22860D02*
X-4580D01*
X-5080Y22360D02*
Y23360D01*
X-5580Y20320D02*
X-4580D01*
X-5080Y19820D02*
Y20820D01*
X-8120Y17780D02*
X-7120D01*
X-7620Y17280D02*
Y18280D01*
X-8120Y20320D02*
X-7120D01*
X-7620Y19820D02*
Y20820D01*
X-8120Y22860D02*
X-7120D01*
X-7620Y22360D02*
Y23360D01*
X-8120Y35560D02*
X-7120D01*
X-7620Y35060D02*
Y36060D01*
X-8120Y33020D02*
X-7120D01*
X-7620Y32520D02*
Y33520D01*
X-8120Y30480D02*
X-7120D01*
X-7620Y29980D02*
Y30980D01*
X-5580Y33020D02*
X-4580D01*
X-5080Y32520D02*
Y33520D01*
X-5580Y35560D02*
X-4580D01*
X-5080Y35060D02*
Y36060D01*
X-5580Y30480D02*
X-4580D01*
X-5080Y29980D02*
Y30980D01*
X-5580Y38100D02*
X-4580D01*
X-5080Y37600D02*
Y38600D01*
X-5580Y45720D02*
X-4580D01*
X-5080Y45220D02*
Y46220D01*
X-5580Y43180D02*
X-4580D01*
X-5080Y42680D02*
Y43680D01*
X-5580Y40640D02*
X-4580D01*
X-5080Y40140D02*
Y41140D01*
X-8120Y38100D02*
X-7120D01*
X-7620Y37600D02*
Y38600D01*
X-8120Y40640D02*
X-7120D01*
X-7620Y40140D02*
Y41140D01*
X-8120Y43180D02*
X-7120D01*
X-7620Y42680D02*
Y43680D01*
X-8120Y45720D02*
X-7120D01*
X-7620Y45220D02*
Y46220D01*
X31420Y-2540D02*
X34620D01*
X33020Y-4140D02*
Y-940D01*
X-1600Y49530D02*
X1600D01*
X0Y47930D02*
Y51130D01*
X46660Y48260D02*
X49860D01*
X48260Y46660D02*
Y49860D01*
X8721Y1293D02*
X8924D01*
X8822Y1191D02*
Y1395D01*
X8205Y4222D02*
X8408D01*
X8306Y4120D02*
Y4324D01*
X4851Y2817D02*
X5055D01*
X4953Y2715D02*
Y2919D01*
X4875Y5183D02*
X5078D01*
X4976Y5081D02*
Y5284D01*
X20080Y11366D02*
X20283D01*
X20181Y11265D02*
Y11468D01*
X34950Y63198D02*
X35154D01*
X35052Y63097D02*
Y63300D01*
X38303Y70629D02*
X38506D01*
X38405Y70528D02*
Y70731D01*
X38412Y67871D02*
X38615D01*
X38513Y67769D02*
Y67972D01*
X30760Y63126D02*
X30964D01*
X30862Y63024D02*
Y63228D01*
X46601Y57404D02*
X46905D01*
X46753Y57252D02*
Y57556D01*
X31010Y57342D02*
X31213D01*
X31112Y57241D02*
Y57444D01*
X31293Y9576D02*
X31496D01*
X31394Y9474D02*
Y9677D01*
X42139Y32410D02*
X42342D01*
X42240Y32309D02*
Y32512D01*
X43561Y41732D02*
X43764D01*
X43663Y41631D02*
Y41834D01*
X37033Y32817D02*
X37236D01*
X37135Y32715D02*
Y32918D01*
X25349Y16043D02*
X25552D01*
X25451Y15941D02*
Y16144D01*
X25959Y15469D02*
X26162D01*
X26060Y15367D02*
Y15570D01*
X27762Y22301D02*
X27965D01*
X27864Y22200D02*
Y22403D01*
X25273Y10211D02*
X25476D01*
X25375Y10109D02*
Y10312D01*
X23774Y10770D02*
X23978D01*
X23876Y10668D02*
Y10871D01*
X34900Y7163D02*
X35103D01*
X35001Y7061D02*
Y7264D01*
X36906Y14658D02*
X37109D01*
X37008Y14557D02*
Y14760D01*
X38583Y19787D02*
X38786D01*
X38684Y19685D02*
Y19888D01*
X36906Y19304D02*
X37109D01*
X37008Y19202D02*
Y19406D01*
X29718Y11938D02*
X29921D01*
X29820Y11836D02*
Y12040D01*
X24363Y50483D02*
X24566D01*
X24464Y50382D02*
Y50585D01*
X23625Y45141D02*
X23828D01*
X23726Y45039D02*
Y45243D01*
X22705Y47361D02*
X22908D01*
X22806Y47260D02*
Y47463D01*
X24282Y22784D02*
X24486D01*
X24384Y22682D02*
Y22885D01*
X27282Y24206D02*
X27485D01*
X27383Y24105D02*
Y24308D01*
X25121Y21793D02*
X25324D01*
X25222Y21692D02*
Y21895D01*
X49809Y59182D02*
X50114D01*
X49961Y59030D02*
Y59335D01*
X3937Y22504D02*
X4140D01*
X4039Y22403D02*
Y22606D01*
X11379Y19152D02*
X11582D01*
X11481Y19050D02*
Y19253D01*
X13056Y711D02*
X13259D01*
X13157Y610D02*
Y813D01*
X14122Y13659D02*
X14326D01*
X14224Y13557D02*
Y13760D01*
X24731Y21093D02*
X25036D01*
X24883Y20940D02*
Y21245D01*
X20549Y22350D02*
X20752D01*
X20650Y22249D02*
Y22452D01*
X27958Y47378D02*
X28162D01*
X28060Y47276D02*
Y47480D01*
X-3200Y40081D02*
X-2997D01*
X-3099Y39980D02*
Y40183D01*
X14376Y32944D02*
X14681D01*
X14529Y32791D02*
Y33096D01*
X-1972Y11513D02*
X-1769D01*
X-1871Y11411D02*
Y11615D01*
X3048Y35038D02*
X3251D01*
X3150Y34936D02*
Y35139D01*
X2845Y16295D02*
X3048D01*
X2946Y16193D02*
Y16396D01*
X23266Y70587D02*
X23470D01*
X23368Y70485D02*
Y70688D01*
X33680Y70637D02*
X33884D01*
X33782Y70536D02*
Y70739D01*
X51459Y74322D02*
X51662D01*
X51561Y74220D02*
Y74423D01*
X44196Y67005D02*
X44399D01*
X44298Y66904D02*
Y67107D01*
X27330Y70587D02*
X27534D01*
X27432Y70485D02*
Y70688D01*
X32156Y67031D02*
X32360D01*
X32258Y66929D02*
Y67132D01*
X21234Y70587D02*
X21438D01*
X21336Y70485D02*
Y70688D01*
X19710Y70587D02*
X19914D01*
X19812Y70485D02*
Y70688D01*
X18186Y70587D02*
X18390D01*
X18288Y70485D02*
Y70688D01*
X10947Y63398D02*
X11151D01*
X11049Y63297D02*
Y63500D01*
X10947Y61493D02*
X11151D01*
X11049Y61392D02*
Y61595D01*
X18632Y61226D02*
X18835D01*
X18733Y61124D02*
Y61328D01*
X15011Y58928D02*
X15215D01*
X15113Y58826D02*
Y59030D01*
X19558Y56896D02*
X19761D01*
X19660Y56794D02*
Y56998D01*
X26278Y58704D02*
X26482D01*
X26380Y58602D02*
Y58806D01*
X24778Y56748D02*
X24982D01*
X24880Y56646D02*
Y56850D01*
X27398Y66226D02*
X27602D01*
X27500Y66124D02*
Y66328D01*
X3073Y73406D02*
X3277D01*
X3175Y73304D02*
Y73508D01*
X16916Y69850D02*
X17120D01*
X17018Y69748D02*
Y69952D01*
X5729Y69850D02*
X5932D01*
X5830Y69748D02*
Y69952D01*
X3105Y63043D02*
X3308D01*
X3207Y62941D02*
Y63144D01*
X22670Y56001D02*
X22873D01*
X22771Y55899D02*
Y56102D01*
X35111Y62281D02*
X35314D01*
X35213Y62179D02*
Y62382D01*
X48692Y66980D02*
X48895D01*
X48793Y66878D02*
Y67081D01*
X41707Y60300D02*
X41910D01*
X41808Y60198D02*
Y60401D01*
X45110Y73050D02*
X45415D01*
X45263Y72898D02*
Y73203D01*
X18593Y58928D02*
X18796D01*
X18694Y58826D02*
Y59030D01*
X27473Y57726D02*
X27676D01*
X27575Y57624D02*
Y57828D01*
X29289Y64226D02*
X29492D01*
X29391Y64124D02*
Y64328D01*
X23825Y63729D02*
X24028D01*
X23927Y63627D02*
Y63830D01*
X23800Y59207D02*
X24003D01*
X23901Y59106D02*
Y59309D01*
X42844Y60395D02*
X43047D01*
X42946Y60294D02*
Y60497D01*
X24994Y62205D02*
X25197D01*
X25095Y62103D02*
Y62306D01*
X16839Y68656D02*
X17043D01*
X16941Y68555D02*
Y68758D01*
X27178Y62226D02*
X27381D01*
X27280Y62124D02*
Y62328D01*
X25730Y61173D02*
X25933D01*
X25832Y61072D02*
Y61275D01*
X27229Y60757D02*
X27432D01*
X27330Y60655D02*
Y60858D01*
X31115Y48514D02*
X31318D01*
X31217Y48412D02*
Y48616D01*
X34381Y50510D02*
X34584D01*
X34483Y50408D02*
Y50612D01*
X6579Y22885D02*
X6782D01*
X6680Y22784D02*
Y22987D01*
X6579Y20396D02*
X6782D01*
X6680Y20295D02*
Y20498D01*
X5740Y17450D02*
X5944D01*
X5842Y17348D02*
Y17551D01*
X5766Y15570D02*
X5969D01*
X5867Y15469D02*
Y15672D01*
X19558Y18184D02*
X19761D01*
X19660Y18082D02*
Y18285D01*
X19558Y21925D02*
X19761D01*
X19660Y21824D02*
Y22027D01*
X16053Y20066D02*
X16256D01*
X16154Y19964D02*
Y20168D01*
X20472Y17526D02*
X20676D01*
X20574Y17424D02*
Y17628D01*
X7290Y35306D02*
X7493D01*
X7391Y35204D02*
Y35408D01*
X20066Y38456D02*
X20269D01*
X20168Y38354D02*
Y38557D01*
X4648Y30175D02*
X4953D01*
X4801Y30023D02*
Y30328D01*
X3429Y31496D02*
X3734D01*
X3581Y31344D02*
Y31648D01*
X15977Y31471D02*
X16281D01*
X16129Y31318D02*
Y31623D01*
X19837Y16332D02*
X20041D01*
X19939Y16231D02*
Y16434D01*
X20396Y15265D02*
X20599D01*
X20498Y15164D02*
Y15367D01*
X26822Y53442D02*
X27026D01*
X26924Y53340D02*
Y53543D01*
X19558Y21260D02*
X19761D01*
X19660Y21158D02*
Y21361D01*
X45701Y67031D02*
X45904D01*
X45803Y66929D02*
Y67132D01*
X32715Y65422D02*
X32918D01*
X32817Y65321D02*
Y65524D01*
X21782Y26728D02*
X21985D01*
X21883Y26626D02*
Y26830D01*
X-9042Y44704D02*
X-8839D01*
X-8941Y44602D02*
Y44806D01*
X31749Y21805D02*
X31952D01*
X31851Y21703D02*
Y21906D01*
X26782Y26713D02*
X26985D01*
X26883Y26611D02*
Y26815D01*
X25782Y24205D02*
X25985D01*
X25883Y24104D02*
Y24307D01*
X22292Y65126D02*
X22495D01*
X22393Y65024D02*
Y65227D01*
X46086Y70927D02*
X46289D01*
X46187Y70825D02*
Y71029D01*
X21082Y53721D02*
X21285D01*
X21184Y53619D02*
Y53823D01*
X18350Y54443D02*
X18553D01*
X18451Y54342D02*
Y54545D01*
X827Y41391D02*
X1030D01*
X929Y41289D02*
Y41492D01*
X31296Y22305D02*
X31499D01*
X31398Y22203D02*
Y22406D01*
X15367Y15469D02*
X15570D01*
X15469Y15367D02*
Y15570D01*
X8204Y406D02*
X8407D01*
X8306Y305D02*
Y508D01*
X8230Y5029D02*
X8433D01*
X8331Y4928D02*
Y5131D01*
X44526Y45390D02*
X44729D01*
X44628Y45288D02*
Y45491D01*
X18390Y24308D02*
X18593D01*
X18491Y24206D02*
Y24409D01*
X28677Y19685D02*
X28880D01*
X28778Y19583D02*
Y19787D01*
X28181Y20307D02*
X28385D01*
X28283Y20206D02*
Y20409D01*
X19558Y18925D02*
X19761D01*
X19660Y18824D02*
Y19027D01*
X45441Y16011D02*
X45644D01*
X45542Y15909D02*
Y16113D01*
X19304Y14097D02*
X19507D01*
X19406Y13995D02*
Y14199D01*
X15138Y16764D02*
X15342D01*
X15240Y16662D02*
Y16866D01*
X15875Y13106D02*
X16078D01*
X15977Y13005D02*
Y13208D01*
X16366Y13781D02*
X16569D01*
X16468Y13679D02*
Y13883D01*
X16358Y15646D02*
X16561D01*
X16459Y15545D02*
Y15748D01*
X17105Y12878D02*
X17309D01*
X17207Y12776D02*
Y12979D01*
X39258Y68978D02*
X39461D01*
X39360Y68877D02*
Y69080D01*
X36398Y68978D02*
X36601D01*
X36500Y68877D02*
Y69080D01*
X35941Y69367D02*
X36144D01*
X36043Y69266D02*
Y69469D01*
X595Y70956D02*
X799D01*
X697Y70855D02*
Y71058D01*
X4205Y47334D02*
X4408D01*
X4307Y47233D02*
Y47436D01*
X12588Y50510D02*
X12791D01*
X12689Y50408D02*
Y50612D01*
X18959Y50510D02*
X19162D01*
X19061Y50408D02*
Y50612D01*
X8661Y51283D02*
X8865D01*
X8763Y51181D02*
Y51384D01*
X39949Y20295D02*
X40152D01*
X40051Y20193D02*
Y20396D01*
X40919Y4648D02*
X41123D01*
X41021Y4547D02*
Y4750D01*
X44856Y42266D02*
X45060D01*
X44958Y42164D02*
Y42367D01*
X44018Y26645D02*
X44221D01*
X44120Y26543D02*
Y26746D01*
X41465Y25908D02*
X41669D01*
X41567Y25806D02*
Y26010D01*
X43256Y25959D02*
X43459D01*
X43358Y25857D02*
Y26060D01*
X42469Y27813D02*
X42672D01*
X42570Y27711D02*
Y27915D01*
X41173Y70612D02*
X41377D01*
X41275Y70510D02*
Y70714D01*
X44577Y59143D02*
X44781D01*
X44679Y59041D02*
Y59244D01*
X46101Y59147D02*
X46305D01*
X46203Y59045D02*
Y59248D01*
X46051Y62128D02*
X46355D01*
X46203Y61976D02*
Y62280D01*
X30553Y67462D02*
X30757D01*
X30655Y67361D02*
Y67564D01*
X46601Y55821D02*
X46905D01*
X46753Y55668D02*
Y55973D01*
X42796Y55172D02*
X42999D01*
X42897Y55070D02*
Y55274D01*
X27126Y40284D02*
X27329D01*
X27228Y40183D02*
Y40386D01*
X21996Y40640D02*
X22301D01*
X22149Y40488D02*
Y40792D01*
X33743Y56120D02*
X34047D01*
X33895Y55968D02*
Y56272D01*
X32346Y59919D02*
X32550D01*
X32448Y59817D02*
Y60020D01*
X23031Y11862D02*
X23235D01*
X23133Y11760D02*
Y11963D01*
X21778Y11383D02*
X21982D01*
X21880Y11281D02*
Y11484D01*
X24790Y7391D02*
X24994D01*
X24892Y7290D02*
Y7493D01*
X21285Y8357D02*
X21488D01*
X21387Y8255D02*
Y8458D01*
X28571Y10871D02*
X28775D01*
X28673Y10770D02*
Y10973D01*
X41986Y50450D02*
X42189D01*
X42088Y50349D02*
Y50552D01*
X37033Y47168D02*
X37237D01*
X37135Y47066D02*
Y47269D01*
X46482Y38303D02*
X46685D01*
X46584Y38202D02*
Y38405D01*
X41318Y34917D02*
X41521D01*
X41420Y34816D02*
Y35019D01*
X25273Y27238D02*
X25476D01*
X25375Y27137D02*
Y27340D01*
X10617Y27356D02*
X10820D01*
X10719Y27254D02*
Y27457D01*
X24282Y6579D02*
X24486D01*
X24384Y6477D02*
Y6680D01*
X37236Y28448D02*
X37440D01*
X37338Y28346D02*
Y28550D01*
X38151Y36017D02*
X38354D01*
X38252Y35916D02*
Y36119D01*
X36627Y36017D02*
X36830D01*
X36728Y35916D02*
Y36119D01*
X35789Y36500D02*
X35992D01*
X35890Y36398D02*
Y36601D01*
X-3912Y43866D02*
X-3708D01*
X-3810Y43764D02*
Y43967D01*
X-10490Y43002D02*
X-10287D01*
X-10389Y42901D02*
Y43104D01*
X-10439Y51342D02*
X-10236D01*
X-10338Y51240D02*
Y51444D01*
X-7798Y51342D02*
X-7595D01*
X-7696Y51240D02*
Y51444D01*
X-5258Y51342D02*
X-5055D01*
X-5156Y51240D02*
Y51444D01*
X-2718Y51342D02*
X-2515D01*
X-2616Y51240D02*
Y51444D01*
X-10490Y48802D02*
X-10287D01*
X-10389Y48700D02*
Y48904D01*
X-10490Y46262D02*
X-10287D01*
X-10389Y46160D02*
Y46364D01*
X-1524Y47625D02*
X-1321D01*
X-1422Y47523D02*
Y47727D01*
X1668Y51283D02*
X1871D01*
X1769Y51181D02*
Y51384D01*
X8052Y45009D02*
X8255D01*
X8153Y44907D02*
Y45110D01*
X5105Y51232D02*
X5309D01*
X5207Y51130D02*
Y51333D01*
X5131Y48006D02*
X5334D01*
X5232Y47904D02*
Y48108D01*
X-3581Y36017D02*
X-3378D01*
X-3480Y35916D02*
Y36119D01*
X1294Y37698D02*
X1497D01*
X1395Y37597D02*
Y37800D01*
X1513Y35966D02*
X1717D01*
X1615Y35865D02*
Y36068D01*
X-3479Y33825D02*
X-3276D01*
X-3377Y33723D02*
Y33926D01*
X-1575Y36017D02*
X-1372D01*
X-1473Y35916D02*
Y36119D01*
X-4115Y24232D02*
X-3912D01*
X-4013Y24130D02*
Y24333D01*
X-3912Y8331D02*
X-3708D01*
X-3810Y8230D02*
Y8433D01*
X-3937Y6858D02*
X-3734D01*
X-3835Y6756D02*
Y6960D01*
X2891Y-4394D02*
X3094D01*
X2993Y-4496D02*
Y-4293D01*
X35281Y-4496D02*
X35484D01*
X35382Y-4597D02*
Y-4394D01*
X38939Y-2515D02*
X39142D01*
X39040Y-2616D02*
Y-2413D01*
X-10490Y39742D02*
X-10287D01*
X-10389Y39641D02*
Y39844D01*
X-10490Y36483D02*
X-10287D01*
X-10389Y36381D02*
Y36584D01*
X-10490Y33223D02*
X-10287D01*
X-10389Y33121D02*
Y33325D01*
X-10490Y29963D02*
X-10287D01*
X-10389Y29862D02*
Y30065D01*
X-10490Y26704D02*
X-10287D01*
X-10389Y26602D02*
Y26805D01*
X-10490Y23444D02*
X-10287D01*
X-10389Y23342D02*
Y23545D01*
X-10490Y20184D02*
X-10287D01*
X-10389Y20083D02*
Y20286D01*
X-10490Y16924D02*
X-10287D01*
X-10389Y16823D02*
Y17026D01*
X-10490Y13665D02*
X-10287D01*
X-10389Y13563D02*
Y13766D01*
X-10490Y10405D02*
X-10287D01*
X-10389Y10303D02*
Y10507D01*
X-10490Y7145D02*
X-10287D01*
X-10389Y7044D02*
Y7247D01*
X-10490Y3886D02*
X-10287D01*
X-10389Y3784D02*
Y3987D01*
X-10490Y626D02*
X-10287D01*
X-10389Y524D02*
Y727D01*
X-9398Y-2286D02*
X-9195D01*
X-9296Y-2388D02*
Y-2184D01*
X-6138Y-2286D02*
X-5935D01*
X-6037Y-2388D02*
Y-2184D01*
X-2879Y-2286D02*
X-2675D01*
X-2777Y-2388D02*
Y-2184D01*
X381Y-2286D02*
X584D01*
X483Y-2388D02*
Y-2184D01*
X3641Y-2286D02*
X3844D01*
X3743Y-2388D02*
Y-2184D01*
X6151Y-4394D02*
X6354D01*
X6252Y-4496D02*
Y-4293D01*
X9411Y-4394D02*
X9614D01*
X9512Y-4496D02*
Y-4293D01*
X12670Y-4394D02*
X12873D01*
X12772Y-4496D02*
Y-4293D01*
X15930Y-4394D02*
X16133D01*
X16032Y-4496D02*
Y-4293D01*
X19190Y-4394D02*
X19393D01*
X19291Y-4496D02*
Y-4293D01*
X22449Y-4394D02*
X22653D01*
X22551Y-4496D02*
Y-4293D01*
X25709Y-4394D02*
X25912D01*
X25811Y-4496D02*
Y-4293D01*
X28969Y-4394D02*
X29172D01*
X29070Y-4496D02*
Y-4293D01*
X31674Y-4352D02*
X31877D01*
X31775Y-4454D02*
Y-4250D01*
X-9891Y64110D02*
X-9688D01*
X-9790Y64008D02*
Y64211D01*
X-9891Y70629D02*
X-9688D01*
X-9790Y70528D02*
Y70731D01*
X-9891Y73169D02*
X-9688D01*
X-9790Y73068D02*
Y73271D01*
X-9891Y75709D02*
X-9688D01*
X-9790Y75608D02*
Y75811D01*
X-9891Y67369D02*
X-9688D01*
X-9790Y67268D02*
Y67471D01*
X-9968Y63161D02*
X-9764D01*
X-9866Y63060D02*
Y63263D01*
X-9968Y59902D02*
X-9764D01*
X-9866Y59800D02*
Y60003D01*
X-9889Y53772D02*
X-9686D01*
X-9788Y53670D02*
Y53873D01*
X-6630Y53772D02*
X-6426D01*
X-6528Y53670D02*
Y53873D01*
X-3370Y53772D02*
X-3167D01*
X-3268Y53670D02*
Y53873D01*
X-110Y53772D02*
X93D01*
X-9Y53670D02*
Y53873D01*
X3150Y53772D02*
X3353D01*
X3251Y53670D02*
Y53873D01*
X57836Y53518D02*
X58039D01*
X57937Y53416D02*
Y53619D01*
X57836Y61061D02*
X58039D01*
X57937Y60960D02*
Y61163D01*
X57836Y67581D02*
X58039D01*
X57937Y67479D02*
Y67682D01*
X57836Y75921D02*
X58039D01*
X57937Y75819D02*
Y76022D01*
X57836Y73381D02*
X58039D01*
X57937Y73279D02*
Y73482D01*
X57836Y70841D02*
X58039D01*
X57937Y70739D02*
Y70942D01*
X57836Y64321D02*
X58039D01*
X57937Y64220D02*
Y64423D01*
X53050Y53560D02*
X53253D01*
X53152Y53459D02*
Y53662D01*
X49790Y53560D02*
X49993D01*
X49892Y53459D02*
Y53662D01*
X46530Y53560D02*
X46734D01*
X46632Y53459D02*
Y53662D01*
X43271Y53560D02*
X43474D01*
X43372Y53459D02*
Y53662D01*
X54915Y76606D02*
X55118D01*
X55016Y76505D02*
Y76708D01*
X51655Y76606D02*
X51858D01*
X51757Y76505D02*
Y76708D01*
X48395Y76606D02*
X48599D01*
X48497Y76505D02*
Y76708D01*
X45136Y76606D02*
X45339D01*
X45237Y76505D02*
Y76708D01*
X41876Y76606D02*
X42079D01*
X41978Y76505D02*
Y76708D01*
X34823Y76683D02*
X35027D01*
X34925Y76581D02*
Y76784D01*
X31191Y76708D02*
X31394D01*
X31293Y76606D02*
Y76810D01*
X5131Y76276D02*
X5334D01*
X5232Y76175D02*
Y76378D01*
X1871Y76276D02*
X2074D01*
X1973Y76175D02*
Y76378D01*
X-1389Y76276D02*
X-1185D01*
X-1287Y76175D02*
Y76378D01*
X-4648Y76276D02*
X-4445D01*
X-4547Y76175D02*
Y76378D01*
X-7908Y76276D02*
X-7705D01*
X-7806Y76175D02*
Y76378D01*
X58547Y-35D02*
X58750D01*
X58649Y-136D02*
Y67D01*
X58547Y3225D02*
X58750D01*
X58649Y3124D02*
Y3327D01*
X58547Y6485D02*
X58750D01*
X58649Y6383D02*
Y6586D01*
X58547Y9745D02*
X58750D01*
X58649Y9643D02*
Y9846D01*
X58547Y13004D02*
X58750D01*
X58649Y12903D02*
Y13106D01*
X58547Y16264D02*
X58750D01*
X58649Y16162D02*
Y16366D01*
X58547Y19524D02*
X58750D01*
X58649Y19422D02*
Y19625D01*
X58547Y22783D02*
X58750D01*
X58649Y22682D02*
Y22885D01*
X58547Y26043D02*
X58750D01*
X58649Y25942D02*
Y26145D01*
X58547Y29303D02*
X58750D01*
X58649Y29201D02*
Y29404D01*
X58547Y32563D02*
X58750D01*
X58649Y32461D02*
Y32664D01*
X58547Y35822D02*
X58750D01*
X58649Y35721D02*
Y35924D01*
X58547Y39082D02*
X58750D01*
X58649Y38980D02*
Y39184D01*
X58547Y45602D02*
X58750D01*
X58649Y45500D02*
Y45703D01*
X58547Y48142D02*
X58750D01*
X58649Y48040D02*
Y48243D01*
X58547Y42342D02*
X58750D01*
X58649Y42240D02*
Y42443D01*
X58395Y50800D02*
X58598D01*
X58496Y50698D02*
Y50902D01*
X43155Y51435D02*
X43358D01*
X43256Y51333D02*
Y51537D01*
X46530Y51435D02*
X46734D01*
X46632Y51333D02*
Y51537D01*
X49822Y51486D02*
X50025D01*
X49923Y51384D02*
Y51587D01*
X53111Y51486D02*
X53315D01*
X53213Y51384D02*
Y51587D01*
X25070Y76962D02*
X25273D01*
X25171Y76860D02*
Y77064D01*
X28296Y76962D02*
X28499D01*
X28397Y76860D02*
Y77064D01*
X31483Y33528D02*
X31686D01*
X31585Y33426D02*
Y33630D01*
X37646Y33156D02*
X37850D01*
X37748Y33055D02*
Y33258D01*
X39465Y35901D02*
X39668D01*
X39566Y35799D02*
Y36002D01*
X39204Y33125D02*
X39408D01*
X39306Y33023D02*
Y33226D01*
X40030Y33122D02*
X40234D01*
X40132Y33020D02*
Y33223D01*
X46330Y40183D02*
X46533D01*
X46431Y40081D02*
Y40284D01*
X46913Y42946D02*
X47116D01*
X47015Y42844D02*
Y43048D01*
X49632Y44145D02*
X49835D01*
X49733Y44044D02*
Y44247D01*
X51369Y43840D02*
X51573D01*
X51471Y43739D02*
Y43942D01*
X51714Y37465D02*
X51918D01*
X51816Y37363D02*
Y37567D01*
X57226Y38456D02*
X57429D01*
X57328Y38354D02*
Y38557D01*
X57048Y46787D02*
X57252D01*
X57150Y46685D02*
Y46888D01*
Y42672D02*
X57353D01*
X57252Y42570D02*
Y42774D01*
X45847Y49886D02*
X46050D01*
X45949Y49784D02*
Y49987D01*
X50646Y49733D02*
X50849D01*
X50747Y49632D02*
Y49835D01*
X55601Y49809D02*
X55804D01*
X55702Y49707D02*
Y49911D01*
X43459Y49225D02*
X43663D01*
X43561Y49124D02*
Y49327D01*
X41935Y42139D02*
X42139D01*
X42037Y42037D02*
Y42240D01*
X30632Y39421D02*
X30836D01*
X30734Y39319D02*
Y39522D01*
X35468Y42189D02*
X35671D01*
X35570Y42088D02*
Y42291D01*
X31344Y46330D02*
X31547D01*
X31445Y46228D02*
Y46431D01*
X25070Y49530D02*
X25273D01*
X25171Y49428D02*
Y49632D01*
X25527Y51257D02*
X25730D01*
X25629Y51156D02*
Y51359D01*
X31483Y51181D02*
X31686D01*
X31585Y51079D02*
Y51283D01*
X27892Y39853D02*
X28095D01*
X27994Y39751D02*
Y39954D01*
X30302Y37313D02*
X30505D01*
X30404Y37211D02*
Y37414D01*
X14783Y39370D02*
X14986D01*
X14884Y39268D02*
Y39472D01*
X5283Y37643D02*
X5486D01*
X5385Y37542D02*
Y37745D01*
X21336Y43129D02*
X21539D01*
X21438Y43028D02*
Y43231D01*
X9830Y47536D02*
X10033D01*
X9931Y47434D02*
Y47638D01*
X22733Y45570D02*
X22936D01*
X22835Y45468D02*
Y45672D01*
X14580Y34366D02*
X14783D01*
X14681Y34265D02*
Y34468D01*
X5704Y25375D02*
X5907D01*
X5806Y25273D02*
Y25476D01*
X11938Y25324D02*
X12141D01*
X12040Y25222D02*
Y25425D01*
X14229Y23470D02*
X14432D01*
X14331Y23368D02*
Y23571D01*
X10439Y13665D02*
X10643D01*
X10541Y13564D02*
Y13767D01*
X18644Y6833D02*
X18847D01*
X18745Y6731D02*
Y6934D01*
X23139Y8992D02*
X23343D01*
X23241Y8890D02*
Y9093D01*
X28575Y8306D02*
X28778D01*
X28677Y8204D02*
Y8407D01*
X38608Y27397D02*
X38811D01*
X38710Y27296D02*
Y27499D01*
X40767Y24511D02*
X40970D01*
X40869Y24409D02*
Y24613D01*
X39465Y19558D02*
X39668D01*
X39566Y19456D02*
Y19660D01*
X46651Y6325D02*
X46855D01*
X46753Y6223D02*
Y6426D01*
X36703Y10084D02*
X36906D01*
X36805Y9982D02*
Y10185D01*
X32029Y14630D02*
X32233D01*
X32131Y14529D02*
Y14732D01*
X45618Y14953D02*
X45822D01*
X45720Y14851D02*
Y15054D01*
X46584Y11659D02*
X46787D01*
X46685Y11557D02*
Y11760D01*
X46253Y3175D02*
X46457D01*
X46355Y3073D02*
Y3277D01*
X25629Y5334D02*
X25832D01*
X25730Y5232D02*
Y5436D01*
X26492Y8331D02*
X26695D01*
X26594Y8230D02*
Y8433D01*
X33833Y22098D02*
X34036D01*
X33934Y21996D02*
Y22200D01*
X33655Y28677D02*
X33858D01*
X33757Y28575D02*
Y28778D01*
X32461Y25298D02*
X32664D01*
X32563Y25197D02*
Y25400D01*
X25486Y19583D02*
X25689D01*
X25587Y19482D02*
Y19685D01*
X965Y8829D02*
X1168D01*
X1067Y8727D02*
Y8931D01*
X20498Y9855D02*
X20701D01*
X20599Y9754D02*
Y9957D01*
X41866Y36373D02*
X42069D01*
X41968Y36271D02*
Y36474D01*
X47096Y61851D02*
X47299D01*
X47197Y61750D02*
Y61953D01*
X47110Y63869D02*
X47313D01*
X47212Y63767D02*
Y63971D01*
X20726Y58293D02*
X20930D01*
X20828Y58191D02*
Y58395D01*
X17368Y64834D02*
X17571D01*
X17469Y64733D02*
Y64936D01*
X13253Y65086D02*
X13456D01*
X13354Y64984D02*
Y65187D01*
X27020Y63056D02*
X27223D01*
X27121Y62955D02*
Y63158D01*
X40087Y67273D02*
X40290D01*
X40188Y67171D02*
Y67374D01*
X43174Y70575D02*
X43377D01*
X43276Y70473D02*
Y70676D01*
X45022Y70575D02*
X45225D01*
X45123Y70473D02*
Y70676D01*
X43961Y73419D02*
X44165D01*
X44063Y73318D02*
Y73521D01*
X41587Y72568D02*
X41790D01*
X41689Y72466D02*
Y72669D01*
X31185Y53480D02*
X31388D01*
X31287Y53379D02*
Y53582D01*
X39219Y53658D02*
X39422D01*
X39320Y53557D02*
Y53760D01*
X30316Y55233D02*
X30519D01*
X30418Y55131D02*
Y55335D01*
X12986Y69190D02*
X13189D01*
X13088Y69088D02*
Y69291D01*
X45968Y24351D02*
X46171D01*
X46070Y24250D02*
Y24453D01*
X44716Y26734D02*
X44920D01*
X44818Y26633D02*
Y26836D01*
X23032Y19619D02*
X23235D01*
X23133Y19518D02*
Y19721D01*
X23645Y23331D02*
X23849D01*
X23747Y23229D02*
Y23432D01*
X18104Y74308D02*
X18307D01*
X18206Y74207D02*
Y74410D01*
X25525Y72500D02*
X25729D01*
X25627Y72399D02*
Y72602D01*
X3997Y24649D02*
X4201D01*
X4099Y24547D02*
Y24750D01*
X16809Y8809D02*
X17012D01*
X16910Y8707D02*
Y8910D01*
X16783Y4222D02*
X16987D01*
X16885Y4120D02*
Y4324D01*
X20701Y20930D02*
X20904D01*
X20803Y20828D02*
Y21031D01*
X12338Y21605D02*
X12542D01*
X12440Y21504D02*
Y21707D01*
X30302Y42709D02*
X30607D01*
X30455Y42557D02*
Y42861D01*
X13183Y30480D02*
X13487D01*
X13335Y30328D02*
Y30632D01*
X4089Y41377D02*
X4293D01*
X4191Y41275D02*
Y41478D01*
X4170Y43180D02*
X4373D01*
X4272Y43078D02*
Y43282D01*
X26111Y32106D02*
X26314D01*
X26213Y32004D02*
Y32207D01*
X30836Y28981D02*
X31039D01*
X30937Y28880D02*
Y29083D01*
X26721Y28981D02*
X26924D01*
X26822Y28880D02*
Y29083D01*
X27229Y31598D02*
X27432D01*
X27330Y31496D02*
Y31699D01*
X29937Y73945D02*
X30140D01*
X30039Y73843D02*
Y74046D01*
X31191Y70565D02*
X31394D01*
X31293Y70464D02*
Y70667D01*
X34569Y70296D02*
X34773D01*
X34671Y70195D02*
Y70398D01*
X35585Y65710D02*
X35789D01*
X35687Y65608D02*
Y65811D01*
X37237Y65422D02*
X37440D01*
X37339Y65321D02*
Y65524D01*
X47465Y72981D02*
X47668D01*
X47567Y72879D02*
Y73082D01*
X37661Y63351D02*
X37864D01*
X37763Y63250D02*
Y63453D01*
X45288Y62051D02*
X45491D01*
X45389Y61949D02*
Y62153D01*
X56312Y62611D02*
X56515D01*
X56413Y62509D02*
Y62713D01*
X54043Y62627D02*
X54246D01*
X54145Y62526D02*
Y62729D01*
X47650Y55724D02*
X47854D01*
X47752Y55623D02*
Y55826D01*
X35717Y53721D02*
X35920D01*
X35819Y53619D02*
Y53823D01*
X37142Y58280D02*
X37345D01*
X37244Y58178D02*
Y58381D01*
X37109Y56154D02*
X37313D01*
X37211Y56053D02*
Y56256D01*
X33782Y61747D02*
X33985D01*
X33884Y61646D02*
Y61849D01*
X7975Y75886D02*
X8179D01*
X8077Y75784D02*
Y75987D01*
X17318Y75946D02*
X17521D01*
X17419Y75844D02*
Y76048D01*
X6858Y70993D02*
X7061D01*
X6960Y70891D02*
Y71095D01*
X7061Y68472D02*
X7264D01*
X7163Y68370D02*
Y68573D01*
X8861Y65075D02*
X9065D01*
X8963Y64973D02*
Y65176D01*
X835Y67385D02*
X1038D01*
X937Y67283D02*
Y67486D01*
X-316Y65226D02*
X-113D01*
X-214Y65124D02*
Y65328D01*
X-147Y62154D02*
X57D01*
X-45Y62052D02*
Y62255D01*
X6121Y36216D02*
X6325D01*
X6223Y36114D02*
Y36318D01*
X20830Y34696D02*
X21033D01*
X20931Y34595D02*
Y34798D01*
X27328Y41744D02*
X27532D01*
X27430Y41642D02*
Y41846D01*
X33807Y34638D02*
X34011D01*
X33909Y34536D02*
Y34739D01*
X51130Y65038D02*
X51333D01*
X51232Y64937D02*
Y65140D01*
X51079Y62109D02*
X51283D01*
X51181Y62008D02*
Y62211D01*
X21285Y62332D02*
X21488D01*
X21387Y62230D02*
Y62433D01*
X22352Y62306D02*
X22555D01*
X22454Y62205D02*
Y62408D01*
X16916Y74930D02*
X17120D01*
X17018Y74828D02*
Y75032D01*
X26322Y75762D02*
X26526D01*
X26424Y75660D02*
Y75863D01*
X21785Y76683D02*
X21988D01*
X21886Y76581D02*
Y76784D01*
X23250Y75819D02*
X23453D01*
X23351Y75717D02*
Y75921D01*
X23232Y73945D02*
X23435D01*
X23334Y73843D02*
Y74046D01*
X26975Y64389D02*
X27178D01*
X27076Y64287D02*
Y64491D01*
X29585Y66703D02*
X29789D01*
X29687Y66601D02*
Y66804D01*
X28896Y66091D02*
X29099D01*
X28998Y65989D02*
Y66192D01*
X29994Y69879D02*
X30197D01*
X30096Y69777D02*
Y69980D01*
X57390Y55982D02*
X57593D01*
X57492Y55880D02*
Y56083D01*
X18847Y76175D02*
X19050D01*
X18948Y76073D02*
Y76276D01*
X54883Y61228D02*
X55188D01*
X55035Y61076D02*
Y61381D01*
X54839Y59817D02*
X55143D01*
X54991Y59665D02*
Y59969D01*
X53899Y57683D02*
X54204D01*
X54051Y57531D02*
Y57836D01*
X51740Y55169D02*
X52045D01*
X51892Y55016D02*
Y55321D01*
M02*
