G04 Layer_Color=16711935*
%FSLAX43Y43*%
%MOMM*%
G71*
G01*
G75*
%ADD45C,0.127*%
%ADD52C,1.600*%
%ADD72R,1.100X0.740*%
%ADD92R,0.990X0.740*%
%ADD94C,0.457*%
%ADD96R,0.740X0.990*%
%ADD97C,0.600*%
%ADD98O,1.300X2.000*%
%ADD99C,1.950*%
%ADD100R,1.950X1.950*%
%ADD101R,1.950X1.950*%
%ADD102C,1.700*%
%ADD103R,1.700X1.700*%
%ADD104C,3.403*%
%ADD105R,1.500X1.100*%
%ADD106R,1.050X0.900*%
G36*
X20210Y22596D02*
X19110D01*
Y24496D01*
X20210D01*
Y22596D01*
D02*
G37*
G36*
X23658Y20867D02*
X22558D01*
Y22767D01*
X23658D01*
Y20867D01*
D02*
G37*
G36*
X18857Y20354D02*
X16957D01*
Y21454D01*
X18857D01*
Y20354D01*
D02*
G37*
G36*
X24276Y45811D02*
X23176D01*
Y47711D01*
X24276D01*
Y45811D01*
D02*
G37*
G36*
X45787Y39463D02*
X44687D01*
Y41363D01*
X45787D01*
Y39463D01*
D02*
G37*
G36*
Y33305D02*
X44687D01*
Y35205D01*
X45787D01*
Y33305D01*
D02*
G37*
G36*
X39234Y16043D02*
X38134D01*
Y17943D01*
X39234D01*
Y16043D01*
D02*
G37*
G36*
X22165Y15712D02*
X21065D01*
Y17612D01*
X22165D01*
Y15712D01*
D02*
G37*
G36*
X23683Y12714D02*
X22583D01*
Y14614D01*
X23683D01*
Y12714D01*
D02*
G37*
G36*
X18857Y18805D02*
X16957D01*
Y19905D01*
X18857D01*
Y18805D01*
D02*
G37*
G36*
Y17281D02*
X16957D01*
Y18381D01*
X18857D01*
Y17281D01*
D02*
G37*
G36*
X37558Y16058D02*
X36458D01*
Y17958D01*
X37558D01*
Y16058D01*
D02*
G37*
G36*
X24451Y54193D02*
X23351D01*
Y56093D01*
X24451D01*
Y54193D01*
D02*
G37*
G36*
X8341Y71840D02*
X6441D01*
Y72940D01*
X8341D01*
Y71840D01*
D02*
G37*
G36*
X15885Y69300D02*
X13985D01*
Y70400D01*
X15885D01*
Y69300D01*
D02*
G37*
G36*
X8341D02*
X6441D01*
Y70400D01*
X8341D01*
Y69300D01*
D02*
G37*
G36*
X15885Y74380D02*
X13985D01*
Y75480D01*
X15885D01*
Y74380D01*
D02*
G37*
G36*
X8341D02*
X6441D01*
Y75480D01*
X8341D01*
Y74380D01*
D02*
G37*
G36*
X15885Y71840D02*
X13985D01*
Y72940D01*
X15885D01*
Y71840D01*
D02*
G37*
G36*
X31862Y58327D02*
X29962D01*
Y59427D01*
X31862D01*
Y58327D01*
D02*
G37*
G36*
X7554Y57870D02*
X5654D01*
Y58970D01*
X7554D01*
Y57870D01*
D02*
G37*
G36*
Y55330D02*
X5654D01*
Y56430D01*
X7554D01*
Y55330D01*
D02*
G37*
G36*
X15885Y66760D02*
X13985D01*
Y67860D01*
X15885D01*
Y66760D01*
D02*
G37*
G36*
X8341D02*
X6441D01*
Y67860D01*
X8341D01*
Y66760D01*
D02*
G37*
G36*
X31858Y61648D02*
X29958D01*
Y62748D01*
X31858D01*
Y61648D01*
D02*
G37*
D45*
X57130Y-3040D02*
G03*
X59130Y-1040I0J2000D01*
G01*
Y75460D02*
G03*
X57130Y77460I-2000J0D01*
G01*
X-10870Y-1040D02*
G03*
X-8870Y-3040I2000J0D01*
G01*
Y77460D02*
G03*
X-10870Y75460I0J-2000D01*
G01*
X27130Y51960D02*
G03*
X27130Y52960I0J500D01*
G01*
X4630Y51960D02*
G03*
X4630Y52960I0J500D01*
G01*
X43130Y52960D02*
G03*
X43130Y51960I0J-500D01*
G01*
X39080Y51960D02*
G03*
X39080Y52960I0J500D01*
G01*
X31750Y52960D02*
G03*
X31750Y51960I0J-500D01*
G01*
X8130Y52960D02*
G03*
X8130Y51960I0J-500D01*
G01*
X59130Y52960D02*
Y75460D01*
Y-1040D02*
Y51960D01*
X-10870Y52960D02*
Y75460D01*
Y-1040D02*
Y51960D01*
X43130Y52960D02*
X59130D01*
X43130Y51960D02*
X59130D01*
X8130Y52960D02*
X27130Y52960D01*
X8130Y51960D02*
X27130Y51960D01*
X-10870Y51960D02*
X4630D01*
X-10870Y52960D02*
X4630D01*
X-8870Y-3040D02*
X500D01*
X-8870Y77460D02*
X57130Y77460D01*
X31750Y52960D02*
X39080D01*
X31750Y51960D02*
X39080D01*
X37600Y-3040D02*
X57130D01*
X500Y-3040D02*
X630D01*
X2630Y-5040D01*
X35630D01*
Y-5040D01*
X37630Y-3040D01*
X-2032Y81788D02*
Y80772D01*
Y81788D02*
X-1645Y80772D01*
X-1258Y81788D02*
X-1645Y80772D01*
X-1258Y81788D02*
Y80772D01*
X-968Y81788D02*
Y80772D01*
Y81788D02*
X-532D01*
X-387Y81739D01*
X-339Y81691D01*
X-291Y81594D01*
Y81498D01*
X-339Y81401D01*
X-387Y81352D01*
X-532Y81304D01*
X-968D02*
X-532D01*
X-387Y81256D01*
X-339Y81207D01*
X-291Y81111D01*
Y80965D01*
X-339Y80869D01*
X-387Y80820D01*
X-532Y80772D01*
X-968D01*
X-63Y81594D02*
X34Y81643D01*
X179Y81788D01*
Y80772D01*
X778Y81788D02*
X1311D01*
X1020Y81401D01*
X1165D01*
X1262Y81352D01*
X1311Y81304D01*
X1359Y81159D01*
Y81062D01*
X1311Y80917D01*
X1214Y80820D01*
X1069Y80772D01*
X924D01*
X778Y80820D01*
X730Y80869D01*
X682Y80965D01*
X2167Y81643D02*
X2118Y81739D01*
X1973Y81788D01*
X1876D01*
X1731Y81739D01*
X1635Y81594D01*
X1586Y81352D01*
Y81111D01*
X1635Y80917D01*
X1731Y80820D01*
X1876Y80772D01*
X1925D01*
X2070Y80820D01*
X2167Y80917D01*
X2215Y81062D01*
Y81111D01*
X2167Y81256D01*
X2070Y81352D01*
X1925Y81401D01*
X1876D01*
X1731Y81352D01*
X1635Y81256D01*
X1586Y81111D01*
X2728Y81788D02*
X2583Y81739D01*
X2486Y81594D01*
X2438Y81352D01*
Y81207D01*
X2486Y80965D01*
X2583Y80820D01*
X2728Y80772D01*
X2825D01*
X2970Y80820D01*
X3066Y80965D01*
X3115Y81207D01*
Y81352D01*
X3066Y81594D01*
X2970Y81739D01*
X2825Y81788D01*
X2728D01*
X4068Y81546D02*
X4019Y81643D01*
X3923Y81739D01*
X3826Y81788D01*
X3632D01*
X3536Y81739D01*
X3439Y81643D01*
X3390Y81546D01*
X3342Y81401D01*
Y81159D01*
X3390Y81014D01*
X3439Y80917D01*
X3536Y80820D01*
X3632Y80772D01*
X3826D01*
X3923Y80820D01*
X4019Y80917D01*
X4068Y81014D01*
D52*
X38695Y73304D02*
D03*
X33695D02*
D03*
D72*
X43637Y36120D02*
D03*
Y37520D02*
D03*
D92*
X43663Y39611D02*
D03*
Y41011D02*
D03*
X23133Y17362D02*
D03*
Y15962D02*
D03*
X21615Y20965D02*
D03*
Y22365D02*
D03*
X25375Y50483D02*
D03*
Y49083D02*
D03*
D94*
X38684Y16393D02*
D03*
Y17493D02*
D03*
X45237Y39913D02*
D03*
Y41013D02*
D03*
X17307Y19355D02*
D03*
X18407D02*
D03*
X17307Y17831D02*
D03*
X18407D02*
D03*
X19660Y24146D02*
D03*
Y23046D02*
D03*
X17307Y20904D02*
D03*
X18407D02*
D03*
X23133Y14264D02*
D03*
Y13164D02*
D03*
X21615Y17262D02*
D03*
Y16162D02*
D03*
X23108Y21217D02*
D03*
Y22317D02*
D03*
X45237Y33655D02*
D03*
Y34755D02*
D03*
X23726Y47361D02*
D03*
Y46261D02*
D03*
X30312Y58877D02*
D03*
X31412D02*
D03*
X31508Y62198D02*
D03*
X30408D02*
D03*
X6004Y58420D02*
D03*
X7104D02*
D03*
X6004Y55880D02*
D03*
X7104D02*
D03*
X23901Y54543D02*
D03*
Y55643D02*
D03*
X6791Y67310D02*
D03*
X7891D02*
D03*
X14335Y69850D02*
D03*
X15435D02*
D03*
X6791D02*
D03*
X7891D02*
D03*
X14335Y72390D02*
D03*
X15435D02*
D03*
X6791D02*
D03*
X7891D02*
D03*
X14335Y74930D02*
D03*
X15435D02*
D03*
X6791D02*
D03*
X7891D02*
D03*
X14335Y67310D02*
D03*
X15435D02*
D03*
X37008Y16408D02*
D03*
Y17508D02*
D03*
D96*
X17207Y14773D02*
D03*
X18607D02*
D03*
Y16332D02*
D03*
X17207D02*
D03*
X22773Y63271D02*
D03*
X21373D02*
D03*
D97*
X21030Y19558D02*
D03*
X27230D02*
D03*
D98*
X39695Y76004D02*
D03*
X32695D02*
D03*
D99*
X53340Y15240D02*
D03*
Y12700D02*
D03*
X55880Y15240D02*
D03*
Y12700D02*
D03*
Y5080D02*
D03*
Y10160D02*
D03*
Y7620D02*
D03*
X53340Y5080D02*
D03*
Y7620D02*
D03*
Y10160D02*
D03*
X55880Y0D02*
D03*
Y2540D02*
D03*
X53340Y0D02*
D03*
Y2540D02*
D03*
Y27940D02*
D03*
Y25400D02*
D03*
X55880Y27940D02*
D03*
Y25400D02*
D03*
Y17780D02*
D03*
Y22860D02*
D03*
Y20320D02*
D03*
X53340Y17780D02*
D03*
Y20320D02*
D03*
Y22860D02*
D03*
Y35560D02*
D03*
Y33020D02*
D03*
Y30480D02*
D03*
X55880Y33020D02*
D03*
Y35560D02*
D03*
Y30480D02*
D03*
Y38100D02*
D03*
Y45720D02*
D03*
Y43180D02*
D03*
Y40640D02*
D03*
X53340Y38100D02*
D03*
Y40640D02*
D03*
Y43180D02*
D03*
X31750Y38100D02*
D03*
Y40640D02*
D03*
X36830D02*
D03*
X34290D02*
D03*
Y38100D02*
D03*
X36830D02*
D03*
X39370D02*
D03*
X24765Y37465D02*
D03*
X48260Y39624D02*
D03*
Y37084D02*
D03*
Y29464D02*
D03*
Y26924D02*
D03*
Y24384D02*
D03*
Y32004D02*
D03*
Y34544D02*
D03*
Y42164D02*
D03*
Y44704D02*
D03*
Y12700D02*
D03*
Y10160D02*
D03*
Y2540D02*
D03*
Y5080D02*
D03*
Y7620D02*
D03*
Y15240D02*
D03*
Y17780D02*
D03*
X0Y5080D02*
D03*
Y7620D02*
D03*
Y10160D02*
D03*
Y2540D02*
D03*
Y0D02*
D03*
X22225Y74930D02*
D03*
X2540Y58420D02*
D03*
X-7620Y73660D02*
D03*
X55880D02*
D03*
X0Y22860D02*
D03*
Y25400D02*
D03*
Y33020D02*
D03*
Y30480D02*
D03*
Y27940D02*
D03*
Y20320D02*
D03*
Y17780D02*
D03*
X-7620Y15240D02*
D03*
Y12700D02*
D03*
X-5080Y15240D02*
D03*
Y12700D02*
D03*
Y5080D02*
D03*
Y10160D02*
D03*
Y7620D02*
D03*
X-7620Y5080D02*
D03*
Y7620D02*
D03*
Y10160D02*
D03*
X-5080Y0D02*
D03*
Y2540D02*
D03*
X-7620Y0D02*
D03*
Y2540D02*
D03*
Y27940D02*
D03*
Y25400D02*
D03*
X-5080Y27940D02*
D03*
Y25400D02*
D03*
Y17780D02*
D03*
Y22860D02*
D03*
Y20320D02*
D03*
X-7620Y17780D02*
D03*
Y20320D02*
D03*
Y22860D02*
D03*
Y35560D02*
D03*
Y33020D02*
D03*
Y30480D02*
D03*
X-5080Y33020D02*
D03*
Y35560D02*
D03*
Y30480D02*
D03*
Y38100D02*
D03*
Y45720D02*
D03*
Y43180D02*
D03*
Y40640D02*
D03*
X-7620Y38100D02*
D03*
Y40640D02*
D03*
Y43180D02*
D03*
D100*
X53340Y45720D02*
D03*
X48260Y21844D02*
D03*
Y0D02*
D03*
X0Y12700D02*
D03*
X2540Y55880D02*
D03*
X-7620Y71120D02*
D03*
X55880D02*
D03*
X0Y35560D02*
D03*
X-7620Y45720D02*
D03*
D101*
X39370Y40640D02*
D03*
X22225Y37465D02*
D03*
X24765Y74930D02*
D03*
D102*
X-2540Y63500D02*
D03*
Y60960D02*
D03*
Y66040D02*
D03*
X-2540Y58420D02*
D03*
Y55880D02*
D03*
X11430Y72390D02*
D03*
Y67310D02*
D03*
Y69850D02*
D03*
D103*
X-2540Y68580D02*
D03*
X11430Y74930D02*
D03*
D104*
X33020Y-2540D02*
D03*
X0Y49530D02*
D03*
X48260Y48260D02*
D03*
D105*
X41310Y33818D02*
D03*
X43510Y32868D02*
D03*
Y34768D02*
D03*
D106*
X21590Y14541D02*
D03*
Y12941D02*
D03*
M02*
