M48
;Layer_Color=9474304
;FILE_FORMAT=4:3
METRIC,LZ
;TYPE=PLATED
T1F00S00C0.203
T2F00S00C0.305
T4F00S00C0.900
T5F00S00C1.000
T6F00S00C1.100
%
T01
X0002993Y-0004394
X0006252
X0009512
X0012772
X0016032
X0019291
X0022551
X0025811
X002907
X0031775Y-0004352
X0035382Y-0004496
X0041021Y0004648
X0046355Y0003175
X0046753Y0006325
X0046685Y0011659
X004572Y0014953
X0045542Y0016011
X004607Y0024351
X0044818Y0026734
X004412Y0026645
X0043358Y0025959
X0041567Y0025908
X0040869Y0024511
X004257Y0027813
X004224Y003241
X004142Y0034917
X0058649Y0032563
Y0029303
Y0026043
Y0022783
Y0019524
Y0016264
Y0013004
Y0009745
Y0006485
Y0003225
Y-0000035
X003904Y-0002515
X0035001Y0007163
X0036805Y0010084
X0037008Y0014658
X0037008Y0019304
X0038684Y0019787
X0039566Y0019558
X0040051Y0020295
X0033934Y0022098
X0031851Y0021805
X0031398Y0022305
X0027864Y0022301
X0027383Y0024206
X0025883Y0024205
X0024384Y0022784
X0023747Y0023331
X0025222Y0021793
X0025587Y0019583
X0023133Y0019619
X0020803Y002093
X001966Y002126
Y0021925
X002065Y002235
X0018491Y0024308
X0014331Y002347
X001244Y0021605
X0011481Y0019152
X0016154Y0020066
X001524Y0016764
X0015469Y0015469
X0016459Y0015646
X0016468Y0013781
X0015977Y0013106
X0017207Y0012878
X0019406Y0014097
X0020498Y0015265
X0019939Y0016332
X0020574Y0017526
X001966Y0018184
Y0018925
X0020181Y0011366
X002188Y0011383
X0023133Y0011862
X0023876Y001077
X0025375Y0010211
X0026594Y0008331
X0028677Y0008306
X0028673Y0010871
X002982Y0011938
X0031394Y0009576
X0032131Y001463
X002606Y0015469
X0025451Y0016043
X0028778Y0019685
X0028283Y0020307
X0026883Y0026713
X0025375Y0027238
X0026822Y0028981
X002733Y0031598
X0026213Y0032106
X0031585Y0033528
X0033909Y0034638
X0037135Y0032817
X0037748Y0033156
X0039306Y0033125
X0040132Y0033122
X003871Y0027397
X0037338Y0028448
X0033757Y0028677
X0030937Y0028981
X0032563Y0025298
X0021883Y0026728
X0020931Y0034696
X0014681Y0034366
X0007391Y0035306
X000315Y0035038
X0004099Y0024649
X0004039Y0022504
X000668Y0022885
Y0020396
X0005842Y001745
X0005867Y001557
X0002946Y0016295
X0010541Y0013665
X0014224Y0013659
X001691Y0008809
X0018745Y0006833
X0021387Y0008357
X0020599Y0009855
X0023241Y0008992
X0024892Y0007391
X0024384Y0006579
X002573Y0005334
X0016885Y0004222
X0013157Y0000711
X0008822Y0001293
X0008306Y0000406
X0008306Y0004222
X0008331Y0005029
X0004976Y0005183
X0004953Y0002817
X0003743Y-0002286
X0005806Y0025375
X001204Y0025324
X0010719Y0027356
X-0004013Y0024232
X-0010389Y0023444
Y0026704
Y0029963
Y0033223
X-0003377Y0033825
X-0010389Y0020184
Y0016924
Y0013665
Y0010405
Y0007145
Y0003886
Y0000626
X-0009296Y-0002286
X-0006037
X-0002777
X0000483
X0001067Y0008829
X-000381Y0008331
X-0003835Y0006858
X-0001871Y0011513
X-0001473Y0036017
X-000348
X-0003099Y0040081
X-000381Y0043866
X-0008941Y0044704
X-0010389Y0046262
Y0048802
X-0010338Y0051342
X-0007696
X-0005156
X-0002616
X-0003268Y0053772
X-0006528
X-0009788
X-0009866Y0059902
Y0063161
X-000979Y006411
Y0067369
Y0070629
Y0073169
X0000697Y0070956
X0000937Y0067385
X-0000214Y0065226
X-0000045Y0062154
X-0000009Y0053772
X-0001422Y0047625
X0000929Y0041391
X-0010389Y0043002
Y0039742
Y0036483
X0001615Y0035966
X0001395Y0037698
X0005385Y0037643
X0006223Y0036216
X0004191Y0041377
X0004272Y004318
X0004307Y0047334
X0005232Y0048006
X0005207Y0051232
X0001769Y0051283
X0003251Y0053772
X0008763Y0051283
X0012689Y005051
X0009931Y0047536
X0008153Y0045009
X0014884Y003937
X0020168Y0038456
X0021438Y0043129
X0022835Y004557
X0023726Y0045141
X0022806Y0047361
X0025171Y004953
X0024464Y0050483
X0025629Y0051257
X0026924Y0053442
X0031287Y005348
X0031585Y0051181
X0031217Y0048514
X0031445Y004633
X002806Y0047378
X002743Y0041744
X0027228Y0040284
X0027994Y0039853
X0030734Y0039421
X0030404Y0037313
X003589Y00365
X0036728Y0036017
X0038252Y0036017
X0039566Y0035901
X003557Y0042189
X0037135Y0047168
X0034483Y005051
X0035819Y0053721
X003932Y0053658
X0037211Y0056154
X0037244Y005828
X0037763Y0063351
X0037339Y0065422
X0035687Y006571
X0035052Y0063198
X0035213Y0062281
X0033884Y0061747
X0032448Y0059919
X0031112Y0057342
X0030418Y0055233
X0027575Y0057726
X002638Y0058704
X0023901Y0059207
X002488Y0056748
X0022771Y0056001
X0021184Y0053721
X0018451Y0054443
X001966Y0056896
X0020828Y0058293
X0018694Y0058928
X0018733Y0061226
X0021387Y0062332
X0022454Y0062306
X0025095Y0062205
X0025832Y0061173
X002733Y0060757
X002728Y0062226
X0027121Y0063056
X0027076Y0064389
X00275Y0066226
X0028998Y0066091
X0029687Y0066703
X0030655Y0067462
X0032258Y0067031
X0032817Y0065422
X0030862Y0063126
X0029391Y0064226
X0023927Y0063729
X0022393Y0065126
X0017469Y0064834
X0016941Y0068656
X0017018Y006985
X0018288Y0070587
X0019812
X0021336Y0070587
X0023368Y0070587
X0023334Y0073945
X0025627Y00725
X0027432Y0070587
X0030096Y0069879
X0031293Y0070565
X0033782Y0070637
X0034671Y0070296
X0036043Y0069367
X00365Y0068978
X003936
X0038513Y0067871
X0040188Y0067273
X0038405Y0070629
X0030039Y0073945
X0018206Y0074308
X0017018Y007493
X0013088Y006919
X0013354Y0065086
X0011049Y0063398
Y0061493
X0008963Y0065075
X0007163Y0068472
X000583Y006985
X000696Y0070993
X0003175Y0073406
X0003207Y0063043
X0015113Y0058928
X0019061Y005051
X0042088Y005045
X0043256Y0051435
X0043372Y005356
X0042897Y0055172
X0042946Y0060395
X0041808Y00603
X0044679Y0059143
X0046203Y0059147
X0047197Y0061851
X0045389Y0062051
X0047212Y0063869
X0045803Y0067031
X0044298Y0067005
X0045123Y0070575
X0046187Y0070927
X0043276Y0070575
X0041275Y0070612
X0041689Y0072568
X0044063Y0073419
X0047567Y0072981
X0051561Y0074322
X0057937Y0073381
Y0070841
Y0067581
Y0064321
X0056413Y0062611
X0054145Y0062627
X0051181Y0062109
X0051232Y0065038
X0048793Y006698
X0047752Y0055724
X0046632Y005356
Y0051435
X0045949Y0049886
X0043561Y0049225
X0044628Y004539
X0044958Y0042266
X0043663Y0041732
X0042037Y0042139
X0047015Y0042946
X0046431Y0040183
X0046584Y0038303
X0051816Y0037465
X0057328Y0038456
X0058649Y0039082
Y0035822
Y0042342
X0057252Y0042672
X005715Y0046787
X0058649Y0045602
Y0048142
X0058496Y00508
X0057937Y0053518
X0057492Y0055982
X0057937Y0061061
X0053152Y005356
X0053213Y0051486
X0049923
X0049892Y005356
X0050747Y0049733
X0055702Y0049809
X0051471Y004384
X0049733Y0044145
X0041968Y0036373
X0041978Y0076606
X0045237
X0048497
X0051757
X0055016
X0057937Y0075921
X0034925Y0076683
X0031293Y0076708
X0028397Y0076962
X0026424Y0075762
X0025171Y0076962
X0023351Y0075819
X0021886Y0076683
X0018948Y0076175
X0017419Y0075946
X0008077Y0075886
X0005232Y0076276
X0001973
X-0001287
X-0004547
X-0007806
X-000979Y0075709
T02
X0004801Y0030175
X0003581Y0031496
X0013335Y003048
X0014529Y0032944
X0016129Y0031471
X0024883Y0021093
X0022149Y004064
X0030455Y0042709
X0033895Y005612
X0046753Y0055821
Y0057404
X0049961Y0059182
X0054051Y0057683
X0054991Y0059817
X0055035Y0061228
X0051892Y0055169
X0046203Y0062128
X0045263Y007305
T04
X0033695Y0073304
X0038695
T05
X005334Y0
X005588
Y000254
Y000508
Y000762
Y001016
Y00127
X005334
Y001524
X005588
Y001778
Y002032
Y002286
Y00254
X005334
Y002794
X005588
Y003048
X005334
Y003302
X005588
X005334Y002286
Y002032
Y001778
Y001016
Y000762
Y000508
Y000254
X-000508
Y000508
Y000762
Y001016
Y00127
X-000762
Y001524
X-000508
Y001778
Y002032
Y002286
Y00254
X-000762
Y002794
X-000508
Y003048
X-000762
Y003302
X-000508
X-000762Y002286
Y002032
Y001778
Y001016
Y000762
Y000508
Y000254
Y0
X-000508
Y003556
X-000762
Y00381
X-000508
Y004064
Y004318
Y004572
X-000762
Y004318
Y004064
X-000254Y005588
Y005842
X-000254Y006096
Y00635
Y006604
Y006858
X-000762Y007112
Y007366
X001143Y007239
Y007493
Y006985
Y006731
X000254Y005842
Y005588
X0022225Y0037465
X0024765
X003175Y00381
Y004064
X003429
X003683
X003937
Y00381
X003683
X003429
X0024765Y007493
X0022225
X005588Y007366
Y007112
Y004572
Y004318
Y004064
Y00381
Y003556
X005334
Y00381
Y004064
Y004318
Y004572
T06
X004826Y0
Y000254
Y000508
Y000762
Y001016
Y00127
Y001524
Y001778
Y0021844
Y0024384
Y0026924
Y0029464
Y0032004
Y0034544
X0Y003302
Y003048
Y002794
Y00254
Y002286
Y002032
Y001778
Y00127
Y001016
Y000762
Y000508
Y000254
Y0
Y003556
X004826Y0037084
Y0039624
Y0042164
Y0044704
M30
